<svg xmlns="http://www.w3.org/2000/svg" width="533.333" height="533.333" preserveAspectRatio="xMidYMid meet" version="1.0" viewBox="0 0 400 400"><metadata>Created by potrace 1.11, written by Peter Selinger 2001-2013</metadata><g fill="#000" stroke="none"><path d="M0 2000 l0 -2000 2000 0 2000 0 0 2000 0 2000 -2000 0 -2000 0 0 -2000z m2432 1085 c261 -39 468 -187 574 -410 54 -112 67 -183 61 -310 -14 -291 -132 -503 -358 -645 -30 -18 -55 -35 -57 -36 -2 -1 67 -161 154 -355 86 -195 158 -360 161 -366 4 -10 -59 -13 -293 -13 l-299 0 -144 325 -143 325 -262 -2 -261 -3 -32 -310 c-17 -170 -32 -316 -32 -322 -1 -10 -63 -13 -277 -13 l-277 0 6 38 c3 20 51 498 107 1062 56 564 103 1031 105 1038 7 19 1135 17 1267 -3z" transform="translate(0.000000,400.000000) scale(0.100000,-0.100000)"/><path d="M1660 2542 c0 -4 -6 -63 -14 -132 -8 -69 -17 -158 -21 -198 l-7 -73 358 3 359 3 55 26 c94 45 130 96 130 183 0 82 -39 142 -115 177 -37 17 -71 19 -392 19 -194 0 -353 -3 -353 -8z" transform="translate(0.000000,400.000000) scale(0.100000,-0.100000)"/></g></svg>