<?xml version="1.0" encoding="utf-8"?>
<!-- Generator: Adobe Illustrator 22.1.0, SVG Export Plug-In . SVG Version: 6.00 Build 0)  -->
<svg version="1.1" id="Layer_1" xmlns="http://www.w3.org/2000/svg" xmlns:xlink="http://www.w3.org/1999/xlink" x="0px" y="0px"
	 viewBox="0 0 210 620" style="enable-background:new 0 0 210 620;" xml:space="preserve">
<path d="M71.1,586.2V445.8l-45.2,1.3c-21.4,0-32.1-25.9-17-41l79.2-79.2c9.4-9.4,24.5-9.3,33.9,0l79.2,79.2
	c15.1,15.1,4.4,40.9-16.9,40.9l-45.3-1.3l0,140.5c0,8.8-7.2,16-16,16H87.1C78.2,602.2,71.1,595.1,71.1,586.2z M138.9,33.8l0,140.5
	l45.2-1.3c21.4,0,32.1,25.9,17,41l-79.2,79.2c-9.4,9.4-24.5,9.3-33.9,0L8.8,213.8c-15.1-15.1-4.4-40.9,16.9-40.9l45.3,1.3l0-140.5
	c0-8.8,7.2-16,16-16l35.9,0C131.8,17.8,138.9,24.9,138.9,33.8z"/>
</svg>
