<svg xmlns="http://www.w3.org/2000/svg" xmlns:xlink="http://www.w3.org/1999/xlink" id="Layer_1" x="0" y="0" enable-background="new 0 0 210 620" version="1.1" viewBox="0 0 210 620" xml:space="preserve"><path d="M138.9,359.9V491l45.2-1.3c21.4,0,32.1,25.9,17,41l-79.2,79.2c-9.4,9.4-24.5,9.3-33.9,0L8.8,530.6	c-15.1-15.1-4.4-40.9,16.9-40.9l45.3,1.3V359.9c0-8.8,7.2-16,16-16l35.9,0C131.8,343.9,138.9,351.1,138.9,359.9z M71.1,260.1	l0-131.1l-45.2,1.3c-21.4,0-32.1-25.9-17-41l79.2-79.2c9.4-9.4,24.5-9.3,33.9,0l79.2,79.2c15.1,15.1,4.4,40.9-16.9,40.9l-45.3-1.3	v131.1c0,8.8-7.2,16-16,16H87.1C78.2,276.1,71.1,268.9,71.1,260.1L71.1,260.1z"/></svg>