<svg class="icon--redaxo" viewBox="202.64 375.948 190 29"><path fill="#FFF" d="M220.283 376.362l-14.812.006-2.832 28.14h7.17l.858-8.513h6.91l3.775 8.513h7.804l-4.252-9.587c3.902-2.129 5.238-5.124 5.56-8.77.409-4.625-3.525-9.789-10.181-9.789zm-.542 12.499h-8.354l.544-5.394c3.114.016 7.11.038 8.53.038 1.833 0 2.85 1.255 2.85 2.571 0 1.736-1.466 2.785-3.57 2.785zM238.429 393.322h14.316l.638-6.33H239.11c.598-2.541 1.827-3.527 3.569-3.527l13.481.002.71-7.101-14.199-.003c-6.501 0-10.315 3.946-11.29 13.47-.923 9.02 3.089 14.675 10.343 14.675h12.303l.733-7.164c-4.086-.021-10.754-.119-12.812-.128-2.451-.008-3.407-.968-3.519-3.894zM272.084 376.366h-13.562l-2.841 28.142 14.93-.001c13.873 0 16.278-28.141 1.473-28.141zm2.974 13.435c-.491 5.17-2.383 7.572-4.602 7.572h-6.885l1.399-13.877h6.83c2.092 0 3.614 2.55 3.258 6.305z"></path><path fill="#2A3542" d="M300.14 376.366h-5.529c-6.216 0-9.932 4.109-10.666 10.567l-1.773 17.598h7.17l.897-8.907h11.947l-.919 8.907h7.172l1.74-16.87c.688-6.804-3.688-11.274-10.039-11.295zm2.943 10.575l-.242 2.351h-11.963l.166-1.644c.319-3.144 1.359-4.117 3.586-4.192h5.503c2.374.009 3.216 1.247 2.95 3.485z"></path><path fill="#2A3542" d="M317.4 376.433l5.222 8.611 5.52-8.611h8.929l-10.11 15.25 8.768 12.801h-8.397l-4.245-6.678-4.444 6.678h-9.245l9.151-13.417-9.139-14.634h7.99z"></path><path fill="#2A3542" d="M350.776 376.237l-6.472.003c-6.083 0-10.135 5.361-10.957 13.559-.868 8.657 2.417 14.89 10.42 14.913l5.678-.017c6.83.013 10.275-4.826 11.215-14.188.945-9.419-3.461-14.27-9.884-14.27zm2.689 14.426c-.562 5.407-1.865 6.823-4.471 6.823-.606 0-5.037.017-5.037.017-2.415.053-4.041-1.272-3.464-6.859.519-5.018 1.927-7.192 4.326-7.192l5.792-.003c2.62-.001 3.399 1.59 2.854 7.214z"></path><path fill="#FFF" d="M370.768 397.044h-3.95c-.948 0-1.504.337-1.766 2.58-.23 1.99.404 2.5 1.353 2.5.74 0 2.439.015 3.851.007l-.264 2.609c-1.438.007-3.057-.009-3.765-.009-2.719 0-4.049-2.074-3.769-5.369.26-3.047 1.598-4.926 4.118-4.926h4.456l-.264 2.608zm21.406-.04l-4.273.001c-1.096 0-1.039 1.313-.165 1.313l1.805.003c4.334 0 4.034 6.387-.342 6.387l-5.157-.008.264-2.608 4.987.008c1.005 0 .994-1.398.156-1.398l-1.713-.001c-4.362 0-4.14-6.302.334-6.302l4.367-.002-.263 2.607zm-13.135.037l-.776 7.705h-2.622l.777-7.705-1.828-.017-.719 7.722h-2.619l.964-10.364 7.591.052c2.322.008 3.921 1.658 3.67 4.145l-.636 6.167h-2.622l.664-6.431c.094-.933-.279-1.27-1.078-1.274h-.766z"></path><path fill="#2A3542" d="M368.855 376.15a5.295 5.295 0 0 1 5.292 5.306 5.293 5.293 0 0 1-10.584 0 5.297 5.297 0 0 1 5.292-5.306zm-2.792 8.169a3.918 3.918 0 0 0 5.599 0 4.08 4.08 0 0 0 0-5.74 3.917 3.917 0 0 0-5.599 0 4.062 4.062 0 0 0 0 5.74zm3.727-2.395l1.464 2.676h-1.8l-1.135-2.246-.274 2.246h-1.533l.788-6.397h1.923c1.574 0 2.399.935 1.938 2.395-.205.681-.687 1.127-1.371 1.326zm-1.084-.962c.539 0 .831-.221.944-.583.189-.534-.035-.864-.659-.864h-.321l-.177 1.447h.213z"></path></svg>
